<svg width="20" height="20" viewBox="0 0 20 20" fill="none" xmlns="http://www.w3.org/2000/svg">
<path d="M9.99973 0C4.4771 0 0 4.47743 0 9.99987C0 15.5223 4.4771 20.0001 9.99973 20.0001C15.5224 20.0001 20 15.5226 20 9.99987C20 4.47716 15.5224 0 9.99973 0ZM14.7535 7.19638L13.8037 8.14619L11.8703 6.21291L11.1368 6.94638L13.0702 8.87979L8.32806 13.6216L6.39478 11.6885L5.6613 12.4219L7.59458 14.3552L7.12205 14.8278L7.11305 14.8188C7.06065 14.905 6.97545 14.968 6.87425 14.9904L5.07137 15.3924C5.04437 15.3985 5.0169 15.4014 4.98977 15.4014C4.89137 15.4014 4.79577 15.3627 4.7249 15.2916C4.63396 15.201 4.5961 15.0702 4.6241 14.9448L5.0259 13.1424C5.04857 13.0413 5.11163 12.9559 5.19777 12.9036L5.18864 12.8945L12.82 5.26277C12.9319 5.1511 13.1136 5.1511 13.2255 5.2631L14.7536 6.79091C14.8655 6.90278 14.8655 7.08451 14.7535 7.19638Z" fill="#EEEEEE"/>
</svg>
