<svg width="20" height="20" viewBox="0 0 20 20" fill="none" xmlns="http://www.w3.org/2000/svg">
<path d="M9.86641 0.000908814C4.34398 0.0748224 -0.0725751 4.61203 0.000903716 10.1347C0.0748173 15.6549 4.61159 20.0728 10.1338 19.9993C15.6552 19.925 20.0726 15.3878 19.9991 9.86555C19.9252 4.34485 15.3882 -0.0727874 9.86641 0.000908814ZM9.83685 16.0871L9.78163 16.0862C8.93119 16.061 8.33162 15.4345 8.35575 14.5967C8.37944 13.7732 8.99358 13.1754 9.81598 13.1754L9.86533 13.1762C10.7395 13.2021 11.3323 13.8223 11.3077 14.6843C11.2834 15.5102 10.6788 16.0871 9.83685 16.0871ZM13.414 8.98728C13.214 9.27141 12.7743 9.62424 12.2201 10.056L11.6099 10.4773C11.2749 10.7377 11.0727 10.9827 10.9969 11.2238C10.9371 11.4136 10.9077 11.4638 10.9025 11.8499L10.9016 11.948H8.57162L8.57836 11.7508C8.60684 10.9403 8.62684 10.4636 8.96271 10.0697C9.48967 9.45098 10.6521 8.7025 10.7014 8.67076C10.8679 8.54532 11.0084 8.40249 11.1129 8.24988C11.3575 7.91271 11.4658 7.64727 11.4658 7.3864C11.4658 7.02444 11.3584 6.68965 11.146 6.39161C10.9419 6.104 10.554 5.95835 9.99315 5.95835C9.43684 5.95835 9.05597 6.13487 8.82814 6.49704C8.59379 6.86944 8.47531 7.26053 8.47531 7.6601V7.75945H6.07291L6.07725 7.65575C6.13921 6.18422 6.66443 5.12464 7.6377 4.50638C8.24923 4.11268 9.0101 3.91311 9.89793 3.91311C11.0601 3.91311 12.0412 4.19551 12.8136 4.75247C13.5962 5.31682 13.9932 6.16204 13.9932 7.26466C13.9932 7.8814 13.7984 8.46075 13.414 8.98728Z" fill="#FF7934"/>
</svg>
