<svg width="20" height="20" viewBox="0 0 20 20" fill="none" xmlns="http://www.w3.org/2000/svg">
<path d="M18.6592 4.98039C17.765 3.44837 16.552 2.23537 15.0199 1.34116C13.4875 0.446991 11.8148 0 10.0003 0C8.18604 0 6.51277 0.446991 4.98071 1.34116C3.44855 2.23523 2.23555 3.44823 1.34129 4.98039C0.446991 6.51264 0 8.1859 0 10C0 11.8143 0.447128 13.4873 1.34116 15.0196C2.23537 16.5516 3.44837 17.7646 4.98053 18.6589C6.51277 19.5531 8.1859 20.0001 10.0001 20.0001C11.8144 20.0001 13.4877 19.5531 15.0198 18.6589C16.5519 17.765 17.7649 16.5516 18.659 15.0196C19.5531 13.4874 20 11.8142 20 10C20 8.18572 19.5531 6.51241 18.6592 4.98039ZM16.4843 8.4766L9.41414 15.5468C9.24918 15.7119 9.04965 15.7944 8.81514 15.7944C8.58948 15.7944 8.39423 15.7119 8.22923 15.5468L3.5155 10.8334C3.35944 10.677 3.28122 10.4821 3.28122 10.2475C3.28122 10.0045 3.35916 9.80467 3.5155 9.64837L4.70041 8.4766C4.86555 8.31169 5.06061 8.22923 5.28646 8.22923C5.5123 8.22923 5.70763 8.31173 5.8725 8.4766L8.81527 11.4193L14.1278 6.11983C14.2927 5.95487 14.488 5.87236 14.7137 5.87236C14.9392 5.87236 15.1348 5.95487 15.2996 6.11983L16.4845 7.29178C16.641 7.44794 16.7189 7.64756 16.7189 7.89055C16.7189 8.12502 16.641 8.32035 16.4843 8.4766Z" fill="#FF7934"/>
</svg>
