<svg width="20" height="20" viewBox="0 0 20 20" fill="none" xmlns="http://www.w3.org/2000/svg">
<circle cx="10" cy="10" r="10" fill="#FF7934"/>
<path d="M10 3C7.24299 3 5 5.27451 5 8.07025C5 11.5398 9.47451 16.6334 9.66502 16.8486C9.84395 17.0507 10.1564 17.0503 10.335 16.8486C10.5255 16.6334 15 11.5398 15 8.07025C14.9999 5.27451 12.757 3 10 3ZM10 10.6212C8.61288 10.6212 7.4844 9.47687 7.4844 8.07025C7.4844 6.66363 8.6129 5.51929 10 5.51929C11.3871 5.51929 12.5156 6.66366 12.5156 8.07028C12.5156 9.47689 11.3871 10.6212 10 10.6212Z" fill="white"/>
</svg>
